<svg version="1.2" baseProfile="tiny-ps" xmlns="http://www.w3.org/2000/svg" viewBox="0 0 22 21" width="22" height="21">
	<title>New Project</title>
	<style>
		tspan { white-space:pre }
		.shp0 { fill: none;stroke: #000000;stroke-linecap:round;stroke-linejoin:round;stroke-width: 2 } 
	</style>
	<path id="Layer" class="shp0" d="M10.05 1.93C10.35 1.01 11.65 1.01 11.95 1.93L13.47 6.6C13.5 6.7 13.55 6.79 13.61 6.88C13.67 6.96 13.75 7.04 13.83 7.1C13.92 7.16 14.01 7.21 14.11 7.24C14.21 7.27 14.32 7.29 14.42 7.29L19.33 7.29C20.3 7.29 20.71 8.53 19.92 9.1L15.95 11.99C15.86 12.05 15.79 12.13 15.73 12.21C15.66 12.3 15.62 12.39 15.58 12.49C15.55 12.59 15.53 12.69 15.54 12.8C15.54 12.9 15.55 13.01 15.58 13.11L17.1 17.78C17.4 18.7 16.35 19.47 15.56 18.9L11.59 16.01C11.5 15.95 11.41 15.9 11.31 15.87C11.21 15.84 11.1 15.82 11 15.82C10.9 15.82 10.79 15.84 10.69 15.87C10.59 15.9 10.5 15.95 10.41 16.01L6.44 18.9C5.65 19.47 4.6 18.7 4.9 17.78L6.42 13.11C6.45 13.01 6.46 12.9 6.46 12.8C6.47 12.69 6.45 12.59 6.42 12.49C6.38 12.39 6.34 12.3 6.27 12.21C6.21 12.13 6.14 12.05 6.05 11.99L2.08 9.1C1.29 8.53 1.7 7.29 2.67 7.29L7.58 7.29C7.68 7.29 7.79 7.27 7.89 7.24C7.99 7.21 8.08 7.16 8.17 7.1C8.25 7.04 8.33 6.96 8.39 6.88C8.45 6.79 8.5 6.7 8.53 6.6L10.05 1.93L10.05 1.93Z" />
</svg>