<svg version="1.2" baseProfile="tiny-ps" xmlns="http://www.w3.org/2000/svg" viewBox="0 0 16 15" width="16" height="15">
	<title>New Project</title>
	<style>
		tspan { white-space:pre }
		.shp0 { fill: #000000 } 
	</style>
	<path id="Layer" class="shp0" d="M7.05 0.93C7.35 0.01 8.65 0.01 8.95 0.93L10.02 4.22C10.05 4.32 10.1 4.41 10.16 4.5C10.22 4.58 10.3 4.66 10.38 4.72C10.47 4.78 10.56 4.83 10.66 4.86C10.76 4.89 10.87 4.91 10.97 4.91L14.43 4.91C15.4 4.91 15.8 6.15 15.02 6.72L12.22 8.75C12.14 8.81 12.06 8.89 12 8.97C11.94 9.06 11.89 9.15 11.86 9.25C11.82 9.35 11.81 9.46 11.81 9.56C11.81 9.67 11.82 9.77 11.86 9.87L12.93 13.16C13.23 14.08 12.17 14.85 11.39 14.28L8.59 12.25C8.5 12.19 8.41 12.14 8.31 12.11C8.21 12.07 8.1 12.06 8 12.06C7.89 12.06 7.79 12.07 7.69 12.11C7.59 12.14 7.5 12.19 7.41 12.25L4.61 14.28C3.83 14.85 2.77 14.08 3.07 13.16L4.14 9.87C4.18 9.77 4.19 9.67 4.19 9.56C4.19 9.46 4.18 9.35 4.14 9.25C4.11 9.15 4.06 9.06 4 8.97C3.94 8.89 3.86 8.81 3.78 8.75L0.98 6.72C0.2 6.15 0.6 4.91 1.57 4.91L5.03 4.91C5.13 4.91 5.24 4.89 5.34 4.86C5.44 4.83 5.53 4.78 5.62 4.72C5.7 4.66 5.78 4.58 5.84 4.5C5.9 4.41 5.95 4.32 5.98 4.22L7.05 0.93L7.05 0.93Z" />
</svg>